<svg width="792" height="530" viewBox="0 0 792 530" fill="none" xmlns="http://www.w3.org/2000/svg">
<g style="mix-blend-mode:multiply" filter="url(#filter0_f_0_368)">
<rect x="131" y="131" width="530" height="268" rx="40" fill="#EDEDED"/>
</g>
<rect x="112" y="131" width="568" height="247" rx="40" fill="white"/>
<g clip-path="url(#clip0_0_368)">
<circle cx="452" cy="215" r="16" fill="url(#paint0_linear_0_368)"/>
<path d="M449.13 220H455.979V218.537H451.516V218.394L453.491 216.479C455.289 214.75 455.829 213.861 455.829 212.74V212.72C455.829 211.059 454.448 209.89 452.527 209.89C450.47 209.89 449.034 211.175 449.034 213.014L449.041 213.034L450.682 213.041L450.688 213.014C450.688 211.995 451.393 211.305 452.438 211.305C453.464 211.305 454.086 211.961 454.086 212.87V212.891C454.086 213.649 453.71 214.148 452.37 215.502L449.13 218.811V220Z" fill="white"/>
</g>
<defs>
<filter id="filter0_f_0_368" x="0.522476" y="0.522476" width="790.955" height="528.955" filterUnits="userSpaceOnUse" color-interpolation-filters="sRGB">
<feFlood flood-opacity="0" result="BackgroundImageFix"/>
<feBlend mode="normal" in="SourceGraphic" in2="BackgroundImageFix" result="shape"/>
<feGaussianBlur stdDeviation="65.2388" result="effect1_foregroundBlur_0_368"/>
</filter>
<linearGradient id="paint0_linear_0_368" x1="436" y1="199" x2="436" y2="231" gradientUnits="userSpaceOnUse">
<stop stop-color="#3A8FFF"/>
<stop offset="1" stop-color="#0837AE"/>
</linearGradient>
<clipPath id="clip0_0_368">
<rect width="32" height="32" fill="white" transform="translate(436 199)"/>
</clipPath>
</defs>
</svg>
