<svg width="32" height="32" viewBox="0 0 32 32" fill="none" xmlns="http://www.w3.org/2000/svg">
<g clip-path="url(#clip0_1634_167)">
<circle cx="16" cy="16" r="16" fill="url(#paint0_linear_1634_167)"/>
<path d="M16.1299 21.2461C18.2695 21.2461 19.7939 19.7832 19.7939 17.7803V17.7666C19.7939 15.8936 18.4678 14.5127 16.5742 14.5127C15.2207 14.5127 14.3594 15.2031 13.9971 15.9824H13.8604C13.8945 13.9863 14.5439 12.3389 16.1709 12.3389C17.0391 12.3389 17.6475 12.79 17.9072 13.4805L17.9346 13.5488H19.6641L19.6504 13.4736C19.3359 11.9629 17.9824 10.8896 16.1709 10.8896C13.6895 10.8896 12.1924 12.8584 12.1924 16.1807V16.1943C12.1924 19.749 14.0244 21.2461 16.1299 21.2461ZM14.168 17.8008V17.7871C14.168 16.6729 15.0225 15.8662 16.1367 15.8662C17.2578 15.8662 18.0713 16.6865 18.0713 17.8281V17.8418C18.0713 18.9424 17.21 19.8105 16.1162 19.8105C15.0225 19.8105 14.168 18.9287 14.168 17.8008Z" fill="white"/>
</g>
<defs>
<linearGradient id="paint0_linear_1634_167" x1="0" y1="0" x2="0" y2="32" gradientUnits="userSpaceOnUse">
<stop stop-color="#3A8FFF"/>
<stop offset="1" stop-color="#0837AE"/>
</linearGradient>
<clipPath id="clip0_1634_167">
<rect width="32" height="32" fill="white"/>
</clipPath>
</defs>
</svg>
