<svg width="402" height="402" viewBox="0 0 402 402" fill="none" xmlns="http://www.w3.org/2000/svg">
<circle cx="201" cy="201" r="201" fill="#232340"/>
<g clip-path="url(#clip0_0_427)">
<path d="M88.3164 155.879C88.3164 142.858 93.0039 132.181 102.379 123.848C111.754 115.449 123.733 111.25 138.316 111.25C152.314 111.25 163.837 115.059 172.887 122.676C182.001 130.293 186.559 139.831 186.559 151.289C186.559 159.167 184.345 166.621 179.918 173.652C175.556 180.618 168.297 189.212 158.141 199.434L123.277 233.906V234.395H188.707V255H89.6836V238.008L141.539 186.445C149.547 178.242 154.951 171.829 157.75 167.207C160.549 162.585 161.949 157.637 161.949 152.363C161.949 146.504 159.605 141.556 154.918 137.52C150.296 133.483 144.501 131.465 137.535 131.465C130.178 131.465 124.059 133.776 119.176 138.398C114.358 143.021 111.949 148.815 111.949 155.781V156.172H88.3164V155.879ZM260.484 257.832C244.208 257.832 230.992 254.023 220.836 246.406C210.68 238.789 205.602 228.958 205.602 216.914C205.602 207.799 208.531 199.954 214.391 193.379C220.315 186.738 228.062 182.507 237.633 180.684V180.195C229.625 178.112 223.212 174.206 218.395 168.477C213.577 162.682 211.168 155.977 211.168 148.359C211.168 137.617 215.79 128.763 225.035 121.797C234.345 114.766 246.161 111.25 260.484 111.25C274.872 111.25 286.656 114.766 295.836 121.797C305.081 128.763 309.703 137.65 309.703 148.457C309.703 156.009 307.294 162.65 302.477 168.379C297.724 174.108 291.344 178.047 283.336 180.195V180.684C292.971 182.572 300.719 186.836 306.578 193.477C312.503 200.052 315.465 207.865 315.465 216.914C315.465 228.958 310.354 238.789 300.133 246.406C289.911 254.023 276.695 257.832 260.484 257.832ZM239.781 231.953C245.185 236.38 252.086 238.594 260.484 238.594C268.883 238.594 275.784 236.38 281.188 231.953C286.591 227.526 289.293 221.895 289.293 215.059C289.293 208.158 286.591 202.493 281.188 198.066C275.849 193.639 268.948 191.426 260.484 191.426C252.086 191.426 245.185 193.672 239.781 198.164C234.378 202.591 231.676 208.223 231.676 215.059C231.676 221.895 234.378 227.526 239.781 231.953ZM260.484 172.188C267.581 172.188 273.408 170.234 277.965 166.328C282.522 162.357 284.801 157.344 284.801 151.289C284.801 145.169 282.522 140.156 277.965 136.25C273.408 132.279 267.581 130.293 260.484 130.293C253.323 130.293 247.464 132.279 242.906 136.25C238.349 140.156 236.07 145.169 236.07 151.289C236.07 157.344 238.349 162.357 242.906 166.328C247.464 170.234 253.323 172.188 260.484 172.188Z" fill="white"/>
<path d="M125.158 295H117.67V278.09H125.029C126.615 278.09 127.873 278.469 128.802 279.227C129.732 279.984 130.197 281.012 130.197 282.309C130.197 283.23 129.892 284.039 129.283 284.734C128.681 285.43 127.927 285.844 127.021 285.977V286.07C128.177 286.156 129.13 286.582 129.88 287.348C130.63 288.113 131.005 289.051 131.005 290.16C131.005 291.652 130.482 292.832 129.435 293.699C128.388 294.566 126.963 295 125.158 295ZM121.209 280.727V285.121H123.752C124.697 285.121 125.427 284.926 125.943 284.535C126.459 284.137 126.716 283.578 126.716 282.859C126.716 282.18 126.49 281.656 126.037 281.289C125.584 280.914 124.943 280.727 124.115 280.727H121.209ZM121.209 292.363H124.255C125.279 292.363 126.056 292.152 126.588 291.73C127.127 291.301 127.396 290.684 127.396 289.879C127.396 289.09 127.119 288.488 126.564 288.074C126.017 287.66 125.22 287.453 124.173 287.453H121.209V292.363ZM132.587 295V282.438H136.009V295H132.587ZM135.598 280.539C135.247 280.883 134.813 281.055 134.298 281.055C133.782 281.055 133.348 280.883 132.997 280.539C132.645 280.195 132.47 279.777 132.47 279.285C132.47 278.785 132.645 278.367 132.997 278.031C133.348 277.688 133.782 277.516 134.298 277.516C134.813 277.516 135.247 277.688 135.598 278.031C135.95 278.367 136.126 278.785 136.126 279.285C136.126 279.777 135.95 280.195 135.598 280.539ZM143.895 292.328C144.754 292.328 145.434 292.008 145.934 291.367C146.441 290.719 146.695 289.828 146.695 288.695C146.695 287.562 146.441 286.66 145.934 285.988C145.426 285.316 144.746 284.98 143.895 284.98C143.051 284.98 142.379 285.316 141.879 285.988C141.387 286.652 141.141 287.555 141.141 288.695C141.141 289.836 141.387 290.727 141.879 291.367C142.371 292.008 143.043 292.328 143.895 292.328ZM143.836 299.734C142.203 299.734 140.859 299.375 139.805 298.656C138.758 297.945 138.164 297.023 138.023 295.891H141.375C141.508 296.328 141.805 296.68 142.266 296.945C142.734 297.219 143.289 297.355 143.93 297.355C144.797 297.355 145.473 297.133 145.957 296.688C146.441 296.25 146.684 295.66 146.684 294.918V292.715H146.613C146.316 293.395 145.82 293.941 145.125 294.355C144.43 294.762 143.633 294.965 142.734 294.965C141.188 294.965 139.949 294.402 139.02 293.277C138.098 292.152 137.637 290.617 137.637 288.672C137.637 286.68 138.098 285.109 139.02 283.961C139.941 282.812 141.199 282.238 142.793 282.238C143.684 282.238 144.469 282.453 145.148 282.883C145.828 283.312 146.336 283.895 146.672 284.629H146.73V282.438H150.105V294.824C150.105 296.316 149.531 297.508 148.383 298.398C147.242 299.289 145.727 299.734 143.836 299.734ZM157.78 284.699C157.038 284.699 156.417 284.953 155.917 285.461C155.425 285.969 155.148 286.617 155.085 287.406H160.417C160.378 286.602 160.116 285.949 159.632 285.449C159.155 284.949 158.538 284.699 157.78 284.699ZM160.464 291.156H163.605C163.417 292.391 162.8 293.387 161.753 294.145C160.714 294.895 159.421 295.27 157.874 295.27C155.945 295.27 154.429 294.691 153.327 293.535C152.234 292.379 151.687 290.793 151.687 288.777C151.687 286.77 152.234 285.168 153.327 283.973C154.421 282.77 155.894 282.168 157.745 282.168C159.566 282.168 161.015 282.738 162.093 283.879C163.171 285.02 163.71 286.547 163.71 288.461V289.504H155.05V289.715C155.05 290.613 155.312 291.344 155.835 291.906C156.366 292.461 157.066 292.738 157.933 292.738C158.558 292.738 159.097 292.598 159.55 292.316C160.003 292.027 160.308 291.641 160.464 291.156ZM165.069 286.129C165.069 284.934 165.549 283.977 166.51 283.258C167.471 282.531 168.756 282.168 170.366 282.168C171.936 282.168 173.198 282.535 174.151 283.27C175.104 284.004 175.592 284.98 175.616 286.199H172.463C172.424 285.691 172.213 285.293 171.83 285.004C171.455 284.715 170.952 284.57 170.319 284.57C169.725 284.57 169.248 284.695 168.889 284.945C168.538 285.188 168.362 285.512 168.362 285.918C168.362 286.527 168.909 286.961 170.002 287.219L172.405 287.734C173.663 288.016 174.565 288.426 175.112 288.965C175.666 289.496 175.944 290.23 175.944 291.168C175.944 292.402 175.428 293.395 174.397 294.145C173.366 294.895 172.018 295.27 170.354 295.27C168.698 295.27 167.373 294.902 166.381 294.168C165.389 293.434 164.846 292.445 164.752 291.203H168.092C168.178 291.734 168.42 292.145 168.819 292.434C169.225 292.723 169.768 292.867 170.448 292.867C171.096 292.867 171.604 292.75 171.971 292.516C172.346 292.273 172.534 291.945 172.534 291.531C172.534 291.211 172.416 290.957 172.182 290.77C171.948 290.574 171.549 290.41 170.987 290.277L168.666 289.762C166.268 289.215 165.069 288.004 165.069 286.129ZM178.369 279.543H181.791V282.438H184.111V285.016H181.791V291.027C181.791 291.973 182.283 292.445 183.267 292.445C183.588 292.445 183.865 292.426 184.099 292.387V294.906C183.701 295 183.158 295.047 182.47 295.047C180.994 295.047 179.939 294.781 179.306 294.25C178.681 293.719 178.369 292.84 178.369 291.613V285.016H176.599V282.438H178.369V279.543ZM198.125 295H190.637V278.09H197.996C199.582 278.09 200.84 278.469 201.77 279.227C202.699 279.984 203.164 281.012 203.164 282.309C203.164 283.23 202.859 284.039 202.25 284.734C201.648 285.43 200.895 285.844 199.988 285.977V286.07C201.145 286.156 202.098 286.582 202.848 287.348C203.598 288.113 203.973 289.051 203.973 290.16C203.973 291.652 203.449 292.832 202.402 293.699C201.355 294.566 199.93 295 198.125 295ZM194.176 280.727V285.121H196.719C197.664 285.121 198.395 284.926 198.91 284.535C199.426 284.137 199.684 283.578 199.684 282.859C199.684 282.18 199.457 281.656 199.004 281.289C198.551 280.914 197.91 280.727 197.082 280.727H194.176ZM194.176 292.363H197.223C198.246 292.363 199.023 292.152 199.555 291.73C200.094 291.301 200.363 290.684 200.363 289.879C200.363 289.09 200.086 288.488 199.531 288.074C198.984 287.66 198.188 287.453 197.141 287.453H194.176V292.363ZM205.495 295V282.438H208.8V284.699H208.87C209.089 283.902 209.456 283.293 209.972 282.871C210.488 282.449 211.116 282.238 211.859 282.238C212.218 282.238 212.542 282.281 212.831 282.367V285.379C212.511 285.246 212.097 285.18 211.589 285.18C210.745 285.18 210.089 285.426 209.62 285.918C209.152 286.41 208.917 287.098 208.917 287.98V295H205.495ZM218.584 292.727C219.342 292.727 219.983 292.508 220.506 292.07C221.037 291.625 221.303 291.066 221.303 290.395V289.48L218.655 289.645C218.014 289.691 217.518 289.852 217.166 290.125C216.823 290.398 216.651 290.758 216.651 291.203C216.651 291.672 216.827 292.043 217.178 292.316C217.53 292.59 217.998 292.727 218.584 292.727ZM217.459 295.199C216.248 295.199 215.245 294.844 214.448 294.133C213.651 293.422 213.252 292.508 213.252 291.391C213.252 290.25 213.674 289.355 214.518 288.707C215.362 288.059 216.569 287.688 218.139 287.594L221.303 287.406V286.574C221.303 285.996 221.112 285.543 220.729 285.215C220.354 284.887 219.842 284.723 219.194 284.723C218.569 284.723 218.057 284.863 217.659 285.145C217.268 285.426 217.03 285.805 216.944 286.281H213.815C213.877 285.047 214.405 284.055 215.397 283.305C216.389 282.547 217.705 282.168 219.346 282.168C220.955 282.168 222.245 282.551 223.213 283.316C224.182 284.082 224.666 285.098 224.666 286.363V295H221.362V293.078H221.291C220.948 293.734 220.424 294.254 219.721 294.637C219.018 295.012 218.264 295.199 217.459 295.199ZM226.681 295V282.438H229.986V284.676H230.056C230.4 283.879 230.9 283.27 231.556 282.848C232.22 282.418 233.029 282.203 233.982 282.203C235.373 282.203 236.447 282.617 237.205 283.445C237.963 284.273 238.341 285.426 238.341 286.902V295H234.92V287.617C234.92 286.789 234.724 286.152 234.334 285.707C233.943 285.262 233.369 285.039 232.611 285.039C231.853 285.039 231.244 285.293 230.783 285.801C230.33 286.309 230.103 286.973 230.103 287.793V295H226.681ZM244.973 295.199C243.403 295.199 242.157 294.617 241.235 293.453C240.313 292.289 239.852 290.703 239.852 288.695C239.852 286.703 240.313 285.129 241.235 283.973C242.165 282.816 243.419 282.238 244.997 282.238C245.888 282.238 246.669 282.453 247.341 282.883C248.02 283.312 248.516 283.883 248.829 284.594H248.899V278.09H252.321V295H248.946V292.844H248.888C248.575 293.555 248.071 294.125 247.376 294.555C246.68 294.984 245.88 295.199 244.973 295.199ZM246.134 284.98C245.274 284.98 244.595 285.316 244.095 285.988C243.602 286.66 243.356 287.57 243.356 288.719C243.356 289.875 243.602 290.785 244.095 291.449C244.595 292.113 245.274 292.445 246.134 292.445C246.985 292.445 247.661 292.113 248.161 291.449C248.669 290.777 248.923 289.867 248.923 288.719C248.923 287.578 248.669 286.672 248.161 286C247.661 285.32 246.985 284.98 246.134 284.98ZM254.465 295V282.438H257.887V295H254.465ZM257.477 280.539C257.125 280.883 256.691 281.055 256.176 281.055C255.66 281.055 255.227 280.883 254.875 280.539C254.523 280.195 254.348 279.777 254.348 279.285C254.348 278.785 254.523 278.367 254.875 278.031C255.227 277.688 255.66 277.516 256.176 277.516C256.691 277.516 257.125 277.688 257.477 278.031C257.828 278.367 258.004 278.785 258.004 279.285C258.004 279.777 257.828 280.195 257.477 280.539ZM259.972 295V282.438H263.277V284.676H263.347C263.691 283.879 264.191 283.27 264.847 282.848C265.511 282.418 266.32 282.203 267.273 282.203C268.663 282.203 269.737 282.617 270.495 283.445C271.253 284.273 271.632 285.426 271.632 286.902V295H268.21V287.617C268.21 286.789 268.015 286.152 267.624 285.707C267.234 285.262 266.659 285.039 265.902 285.039C265.144 285.039 264.534 285.293 264.073 285.801C263.62 286.309 263.394 286.973 263.394 287.793V295H259.972ZM279.401 292.328C280.26 292.328 280.94 292.008 281.44 291.367C281.948 290.719 282.202 289.828 282.202 288.695C282.202 287.562 281.948 286.66 281.44 285.988C280.932 285.316 280.252 284.98 279.401 284.98C278.557 284.98 277.885 285.316 277.385 285.988C276.893 286.652 276.647 287.555 276.647 288.695C276.647 289.836 276.893 290.727 277.385 291.367C277.877 292.008 278.549 292.328 279.401 292.328ZM279.342 299.734C277.709 299.734 276.366 299.375 275.311 298.656C274.264 297.945 273.67 297.023 273.53 295.891H276.881C277.014 296.328 277.311 296.68 277.772 296.945C278.241 297.219 278.795 297.355 279.436 297.355C280.303 297.355 280.979 297.133 281.463 296.688C281.948 296.25 282.19 295.66 282.19 294.918V292.715H282.12C281.823 293.395 281.327 293.941 280.631 294.355C279.936 294.762 279.139 294.965 278.241 294.965C276.694 294.965 275.455 294.402 274.526 293.277C273.604 292.152 273.143 290.617 273.143 288.672C273.143 286.68 273.604 285.109 274.526 283.961C275.448 282.812 276.705 282.238 278.299 282.238C279.19 282.238 279.975 282.453 280.655 282.883C281.334 283.312 281.842 283.895 282.178 284.629H282.237V282.438H285.612V294.824C285.612 296.316 285.038 297.508 283.889 298.398C282.748 299.289 281.233 299.734 279.342 299.734Z" fill="white"/>
</g>
<defs>
<clipPath id="clip0_0_427">
<rect width="245" height="238" fill="white" transform="translate(79 64)"/>
</clipPath>
</defs>
</svg>
