<svg width="158" height="48" viewBox="0 0 158 48" fill="none" xmlns="http://www.w3.org/2000/svg">
<path d="M73.4043 18L72.3232 14.7217H67.6562L66.5752 18H64.2373L68.7373 5.31738H71.2949L75.7949 18H73.4043ZM69.959 7.55859L68.1836 12.9727H71.7871L70.0205 7.55859H69.959ZM84.3467 8.68359L81.0684 18H78.6602L75.3555 8.68359H77.6934L79.8555 15.9697H79.8994L82.0615 8.68359H84.3467ZM88.5479 16.4971C89.1748 16.4971 89.7021 16.3125 90.1299 15.9434C90.5635 15.5684 90.7803 15.1025 90.7803 14.5459V13.834L88.627 13.9658C88.0996 14.001 87.6895 14.1328 87.3965 14.3613C87.1094 14.584 86.9658 14.8799 86.9658 15.249C86.9658 15.6299 87.1094 15.9346 87.3965 16.1631C87.6895 16.3857 88.0732 16.4971 88.5479 16.4971ZM87.8887 18.1494C86.9805 18.1494 86.2334 17.8887 85.6475 17.3672C85.0674 16.8457 84.7773 16.1689 84.7773 15.3369C84.7773 14.5107 85.082 13.8574 85.6914 13.377C86.3066 12.8965 87.1826 12.6211 88.3193 12.5508L90.7803 12.4102V11.7422C90.7803 11.2559 90.625 10.8779 90.3145 10.6084C90.0098 10.3389 89.585 10.2041 89.04 10.2041C88.5303 10.2041 88.1143 10.3184 87.792 10.5469C87.4697 10.7754 87.2734 11.0859 87.2031 11.4785H85.1729C85.2197 10.5938 85.5977 9.87598 86.3066 9.3252C87.0215 8.76855 87.9619 8.49023 89.1279 8.49023C90.2822 8.49023 91.2051 8.77148 91.8965 9.33398C92.5938 9.89648 92.9424 10.6465 92.9424 11.584V18H90.833V16.5146H90.7891C90.5254 17.0127 90.127 17.4111 89.5938 17.71C89.0605 18.0029 88.4922 18.1494 87.8887 18.1494ZM94.7617 18V8.68359H96.9502V18H94.7617ZM96.7129 7.11914C96.4785 7.34766 96.1914 7.46191 95.8516 7.46191C95.5117 7.46191 95.2246 7.34766 94.9902 7.11914C94.7559 6.88477 94.6387 6.60352 94.6387 6.27539C94.6387 5.94141 94.7559 5.66016 94.9902 5.43164C95.2246 5.19727 95.5117 5.08008 95.8516 5.08008C96.1914 5.08008 96.4785 5.19727 96.7129 5.43164C96.9531 5.66016 97.0732 5.94141 97.0732 6.27539C97.0732 6.60352 96.9531 6.88477 96.7129 7.11914ZM98.8486 18V5.31738H101.037V18H98.8486ZM106.302 16.4971C106.929 16.4971 107.456 16.3125 107.884 15.9434C108.317 15.5684 108.534 15.1025 108.534 14.5459V13.834L106.381 13.9658C105.854 14.001 105.443 14.1328 105.15 14.3613C104.863 14.584 104.72 14.8799 104.72 15.249C104.72 15.6299 104.863 15.9346 105.15 16.1631C105.443 16.3857 105.827 16.4971 106.302 16.4971ZM105.643 18.1494C104.734 18.1494 103.987 17.8887 103.401 17.3672C102.821 16.8457 102.531 16.1689 102.531 15.3369C102.531 14.5107 102.836 13.8574 103.445 13.377C104.061 12.8965 104.937 12.6211 106.073 12.5508L108.534 12.4102V11.7422C108.534 11.2559 108.379 10.8779 108.068 10.6084C107.764 10.3389 107.339 10.2041 106.794 10.2041C106.284 10.2041 105.868 10.3184 105.546 10.5469C105.224 10.7754 105.027 11.0859 104.957 11.4785H102.927C102.974 10.5938 103.352 9.87598 104.061 9.3252C104.775 8.76855 105.716 8.49023 106.882 8.49023C108.036 8.49023 108.959 8.77148 109.65 9.33398C110.348 9.89648 110.696 10.6465 110.696 11.584V18H108.587V16.5146H108.543C108.279 17.0127 107.881 17.4111 107.348 17.71C106.814 18.0029 106.246 18.1494 105.643 18.1494ZM117.675 18.1494C117.001 18.1494 116.406 17.9971 115.891 17.6924C115.381 17.3877 114.988 16.96 114.713 16.4092H114.669V18H112.524V5.31738H114.713V10.2832H114.766C115.029 9.73242 115.416 9.30176 115.926 8.99121C116.436 8.68066 117.019 8.52539 117.675 8.52539C118.853 8.52539 119.787 8.95898 120.479 9.82617C121.17 10.6875 121.516 11.8594 121.516 13.3418C121.516 14.8301 121.17 16.0049 120.479 16.8662C119.793 17.7217 118.858 18.1494 117.675 18.1494ZM116.998 10.3271C116.318 10.3271 115.765 10.6055 115.337 11.1621C114.915 11.7129 114.704 12.4395 114.704 13.3418C114.704 14.25 114.915 14.9795 115.337 15.5303C115.765 16.0811 116.318 16.3564 116.998 16.3564C117.701 16.3564 118.255 16.0869 118.659 15.5479C119.069 15.0029 119.274 14.2676 119.274 13.3418C119.274 12.416 119.069 11.6836 118.659 11.1445C118.249 10.5996 117.695 10.3271 116.998 10.3271ZM123.001 18V5.31738H125.189V18H123.001ZM131.069 10.1865C130.46 10.1865 129.95 10.3975 129.54 10.8193C129.136 11.2354 128.91 11.7715 128.863 12.4277H133.214C133.19 11.7656 132.982 11.2266 132.59 10.8105C132.197 10.3945 131.69 10.1865 131.069 10.1865ZM133.223 15.2139H135.271C135.13 16.0986 134.682 16.8164 133.926 17.3672C133.17 17.9121 132.244 18.1846 131.148 18.1846C129.754 18.1846 128.658 17.7568 127.861 16.9014C127.064 16.04 126.666 14.8652 126.666 13.377C126.666 11.9004 127.062 10.7168 127.853 9.82617C128.649 8.93555 129.719 8.49023 131.061 8.49023C132.379 8.49023 133.425 8.91504 134.198 9.76465C134.972 10.6084 135.358 11.7393 135.358 13.1572V13.8691H128.846V14.001C128.846 14.751 129.057 15.3545 129.479 15.8115C129.906 16.2686 130.478 16.4971 131.192 16.4971C131.696 16.4971 132.13 16.3828 132.493 16.1543C132.862 15.9199 133.105 15.6064 133.223 15.2139ZM67.1377 32.6836V42.4395C67.1377 44.3262 66.0771 45.2695 63.9561 45.2695C63.6982 45.2695 63.5166 45.2637 63.4111 45.252V43.582C63.4404 43.5879 63.5371 43.5908 63.7012 43.5908C64.1523 43.5908 64.4717 43.5 64.6592 43.3184C64.8525 43.1367 64.9492 42.832 64.9492 42.4043V32.6836H67.1377ZM66.9004 31.1191C66.666 31.3477 66.3789 31.4619 66.0391 31.4619C65.6992 31.4619 65.4121 31.3477 65.1777 31.1191C64.9434 30.8848 64.8262 30.6035 64.8262 30.2754C64.8262 29.9414 64.9434 29.6602 65.1777 29.4316C65.4121 29.1973 65.6992 29.0801 66.0391 29.0801C66.3789 29.0801 66.666 29.1973 66.9004 29.4316C67.1406 29.6602 67.2607 29.9414 67.2607 30.2754C67.2607 30.6035 67.1406 30.8848 66.9004 31.1191ZM76.3838 40.8926C75.5693 41.7539 74.4736 42.1846 73.0967 42.1846C71.7197 42.1846 70.624 41.7539 69.8096 40.8926C68.9951 40.0254 68.5879 38.8418 68.5879 37.3418C68.5879 35.8477 68.998 34.667 69.8184 33.7998C70.6387 32.9268 71.7314 32.4902 73.0967 32.4902C74.4678 32.4902 75.5605 32.9268 76.375 33.7998C77.1953 34.667 77.6055 35.8477 77.6055 37.3418C77.6055 38.8418 77.1982 40.0254 76.3838 40.8926ZM71.4268 39.6357C71.8369 40.1807 72.3936 40.4531 73.0967 40.4531C73.7998 40.4531 74.3564 40.1807 74.7666 39.6357C75.1768 39.0908 75.3818 38.3262 75.3818 37.3418C75.3818 36.3633 75.1768 35.6016 74.7666 35.0566C74.3564 34.5059 73.7998 34.2305 73.0967 34.2305C72.3994 34.2305 71.8428 34.5059 71.4268 35.0566C71.0166 35.6016 70.8115 36.3633 70.8115 37.3418C70.8115 38.3262 71.0166 39.0908 71.4268 39.6357ZM84.2236 42.1494C83.5498 42.1494 82.9551 41.9971 82.4395 41.6924C81.9297 41.3877 81.5371 40.96 81.2617 40.4092H81.2178V42H79.0732V29.3174H81.2617V34.2832H81.3145C81.5781 33.7324 81.9648 33.3018 82.4746 32.9912C82.9844 32.6807 83.5674 32.5254 84.2236 32.5254C85.4014 32.5254 86.3359 32.959 87.0273 33.8262C87.7188 34.6875 88.0645 35.8594 88.0645 37.3418C88.0645 38.8301 87.7188 40.0049 87.0273 40.8662C86.3418 41.7217 85.4072 42.1494 84.2236 42.1494ZM83.5469 34.3271C82.8672 34.3271 82.3135 34.6055 81.8857 35.1621C81.4639 35.7129 81.2529 36.4395 81.2529 37.3418C81.2529 38.25 81.4639 38.9795 81.8857 39.5303C82.3135 40.0811 82.8672 40.3564 83.5469 40.3564C84.25 40.3564 84.8037 40.0869 85.208 39.5479C85.6182 39.0029 85.8232 38.2676 85.8232 37.3418C85.8232 36.416 85.6182 35.6836 85.208 35.1445C84.7979 34.5996 84.2441 34.3271 83.5469 34.3271ZM89.3213 35.3555C89.3213 34.5 89.667 33.8086 90.3584 33.2812C91.0498 32.7539 91.9609 32.4902 93.0918 32.4902C94.1816 32.4902 95.0664 32.7598 95.7461 33.2988C96.4316 33.832 96.7891 34.5293 96.8184 35.3906H94.7793C94.7441 34.9863 94.5742 34.6699 94.2695 34.4414C93.9648 34.2129 93.5576 34.0986 93.0479 34.0986C92.5674 34.0986 92.1807 34.2041 91.8877 34.415C91.5947 34.6201 91.4482 34.8926 91.4482 35.2324C91.4482 35.748 91.8936 36.1143 92.7842 36.3311L94.4453 36.7002C95.377 36.917 96.042 37.2217 96.4404 37.6143C96.8389 38.0068 97.0381 38.5488 97.0381 39.2402C97.0381 40.1191 96.6689 40.8311 95.9307 41.376C95.1924 41.915 94.2344 42.1846 93.0566 42.1846C91.8965 42.1846 90.9619 41.9209 90.2529 41.3936C89.5498 40.8604 89.1602 40.1484 89.084 39.2578H91.2373C91.3018 39.6855 91.4951 40.0137 91.8174 40.2422C92.1455 40.4707 92.585 40.585 93.1357 40.585C93.6689 40.585 94.0879 40.4854 94.3926 40.2861C94.7031 40.0811 94.8584 39.8057 94.8584 39.46C94.8584 39.1904 94.7617 38.9766 94.5684 38.8184C94.3809 38.6543 94.0615 38.5137 93.6104 38.3965L91.9141 38.001C90.1855 37.5967 89.3213 36.7148 89.3213 35.3555Z" fill="#8B8B8B"/>
<circle cx="24" cy="24" r="24" transform="rotate(-90 24 24)" fill="#C897E4"/>
<path d="M14 24H27" stroke="white" stroke-width="2" stroke-linecap="round" stroke-linejoin="round"/>
<path fill-rule="evenodd" clip-rule="evenodd" d="M27 29V19L34 24L27 29Z" stroke="white" stroke-width="2" stroke-linecap="round" stroke-linejoin="round"/>
</svg>
